<mxfile host="app.diagrams.net" agent="Mozilla/5.0 (Windows NT 10.0; Win64; x64) AppleWebKit/537.36 (KHTML, like Gecko) Chrome/137.0.0.0 Safari/537.36" version="27.1.4">
  <diagram id="C5RBs43oDa-KdzZeNtuy" name="Page-1">
    <mxGraphModel dx="2795" dy="2165" grid="1" gridSize="10" guides="1" tooltips="1" connect="1" arrows="1" fold="1" page="1" pageScale="1" pageWidth="827" pageHeight="1169" math="0" shadow="0">
      <root>
        <mxCell id="WIyWlLk6GJQsqaUBKTNV-0" />
        <mxCell id="WIyWlLk6GJQsqaUBKTNV-1" parent="WIyWlLk6GJQsqaUBKTNV-0" />
        <mxCell id="sdMigr9z8ULhyfIldjyS-41" style="edgeStyle=orthogonalEdgeStyle;rounded=0;orthogonalLoop=1;jettySize=auto;html=1;entryX=0.5;entryY=1;entryDx=0;entryDy=0;" parent="WIyWlLk6GJQsqaUBKTNV-1" source="sdMigr9z8ULhyfIldjyS-0" target="sdMigr9z8ULhyfIldjyS-34" edge="1">
          <mxGeometry relative="1" as="geometry" />
        </mxCell>
        <mxCell id="sdMigr9z8ULhyfIldjyS-0" value="Connection" style="swimlane;fontStyle=0;childLayout=stackLayout;horizontal=1;startSize=26;fillColor=#d5e8d4;horizontalStack=0;resizeParent=1;resizeParentMax=0;resizeLast=0;collapsible=1;marginBottom=0;whiteSpace=wrap;html=1;strokeColor=#82b366;direction=east;" parent="WIyWlLk6GJQsqaUBKTNV-1" vertex="1">
          <mxGeometry x="210" y="130" width="260" height="286" as="geometry">
            <mxRectangle x="274" y="130" width="100" height="30" as="alternateBounds" />
          </mxGeometry>
        </mxCell>
        <mxCell id="sdMigr9z8ULhyfIldjyS-1" value="+ client: MqttClient" style="text;strokeColor=none;fillColor=none;align=left;verticalAlign=top;spacingLeft=4;spacingRight=4;overflow=hidden;rotatable=0;points=[[0,0.5],[1,0.5]];portConstraint=eastwest;whiteSpace=wrap;html=1;" parent="sdMigr9z8ULhyfIldjyS-0" vertex="1">
          <mxGeometry y="26" width="260" height="26" as="geometry" />
        </mxCell>
        <mxCell id="sdMigr9z8ULhyfIldjyS-2" value="+ CLIENT_ID: String" style="text;strokeColor=none;fillColor=none;align=left;verticalAlign=top;spacingLeft=4;spacingRight=4;overflow=hidden;rotatable=0;points=[[0,0.5],[1,0.5]];portConstraint=eastwest;whiteSpace=wrap;html=1;" parent="sdMigr9z8ULhyfIldjyS-0" vertex="1">
          <mxGeometry y="52" width="260" height="26" as="geometry" />
        </mxCell>
        <mxCell id="sdMigr9z8ULhyfIldjyS-3" value="&lt;div&gt;+ ROOM_ID: String&lt;/div&gt;" style="text;strokeColor=none;fillColor=none;align=left;verticalAlign=top;spacingLeft=4;spacingRight=4;overflow=hidden;rotatable=0;points=[[0,0.5],[1,0.5]];portConstraint=eastwest;whiteSpace=wrap;html=1;" parent="sdMigr9z8ULhyfIldjyS-0" vertex="1">
          <mxGeometry y="78" width="260" height="26" as="geometry" />
        </mxCell>
        <mxCell id="KRM4Gb67azi5ZCk7ItP3-2" value="&lt;div&gt;+ TOPIC_CURRENT_ROOM_DATA: String&lt;/div&gt;" style="text;strokeColor=none;fillColor=none;align=left;verticalAlign=top;spacingLeft=4;spacingRight=4;overflow=hidden;rotatable=0;points=[[0,0.5],[1,0.5]];portConstraint=eastwest;whiteSpace=wrap;html=1;" parent="sdMigr9z8ULhyfIldjyS-0" vertex="1">
          <mxGeometry y="104" width="260" height="26" as="geometry" />
        </mxCell>
        <mxCell id="KRM4Gb67azi5ZCk7ItP3-4" value="&lt;div&gt;+ TOPIC_SHOW_RESULTS: String&lt;/div&gt;" style="text;strokeColor=none;fillColor=none;align=left;verticalAlign=top;spacingLeft=4;spacingRight=4;overflow=hidden;rotatable=0;points=[[0,0.5],[1,0.5]];portConstraint=eastwest;whiteSpace=wrap;html=1;" parent="sdMigr9z8ULhyfIldjyS-0" vertex="1">
          <mxGeometry y="130" width="260" height="26" as="geometry" />
        </mxCell>
        <mxCell id="KRM4Gb67azi5ZCk7ItP3-5" value="&lt;div&gt;+ TOPIC_HIDE_RESULTS: String&lt;/div&gt;" style="text;strokeColor=none;fillColor=none;align=left;verticalAlign=top;spacingLeft=4;spacingRight=4;overflow=hidden;rotatable=0;points=[[0,0.5],[1,0.5]];portConstraint=eastwest;whiteSpace=wrap;html=1;" parent="sdMigr9z8ULhyfIldjyS-0" vertex="1">
          <mxGeometry y="156" width="260" height="26" as="geometry" />
        </mxCell>
        <mxCell id="KRM4Gb67azi5ZCk7ItP3-6" value="&lt;div&gt;+ TOPIC_SEND_VOTE: String&lt;/div&gt;" style="text;strokeColor=none;fillColor=none;align=left;verticalAlign=top;spacingLeft=4;spacingRight=4;overflow=hidden;rotatable=0;points=[[0,0.5],[1,0.5]];portConstraint=eastwest;whiteSpace=wrap;html=1;" parent="sdMigr9z8ULhyfIldjyS-0" vertex="1">
          <mxGeometry y="182" width="260" height="26" as="geometry" />
        </mxCell>
        <mxCell id="KRM4Gb67azi5ZCk7ItP3-9" value="&lt;div&gt;&lt;u&gt;+ instance: Connection&lt;/u&gt;&lt;/div&gt;" style="text;strokeColor=none;fillColor=none;align=left;verticalAlign=top;spacingLeft=4;spacingRight=4;overflow=hidden;rotatable=0;points=[[0,0.5],[1,0.5]];portConstraint=eastwest;whiteSpace=wrap;html=1;" parent="sdMigr9z8ULhyfIldjyS-0" vertex="1">
          <mxGeometry y="208" width="260" height="26" as="geometry" />
        </mxCell>
        <mxCell id="KRM4Gb67azi5ZCk7ItP3-7" value="&lt;div&gt;- BROKER: String&lt;/div&gt;" style="text;strokeColor=none;fillColor=none;align=left;verticalAlign=top;spacingLeft=4;spacingRight=4;overflow=hidden;rotatable=0;points=[[0,0.5],[1,0.5]];portConstraint=eastwest;whiteSpace=wrap;html=1;" parent="sdMigr9z8ULhyfIldjyS-0" vertex="1">
          <mxGeometry y="234" width="260" height="26" as="geometry" />
        </mxCell>
        <mxCell id="KRM4Gb67azi5ZCk7ItP3-8" value="&lt;div&gt;- TOPIC_HEADER: String&lt;/div&gt;" style="text;strokeColor=none;fillColor=none;align=left;verticalAlign=top;spacingLeft=4;spacingRight=4;overflow=hidden;rotatable=0;points=[[0,0.5],[1,0.5]];portConstraint=eastwest;whiteSpace=wrap;html=1;" parent="sdMigr9z8ULhyfIldjyS-0" vertex="1">
          <mxGeometry y="260" width="260" height="26" as="geometry" />
        </mxCell>
        <mxCell id="sdMigr9z8ULhyfIldjyS-13" style="edgeStyle=orthogonalEdgeStyle;rounded=0;orthogonalLoop=1;jettySize=auto;html=1;endArrow=none;startFill=1;startArrow=diamondThin;strokeWidth=1;endSize=25;startSize=25;entryX=1;entryY=0.5;entryDx=0;entryDy=0;" parent="WIyWlLk6GJQsqaUBKTNV-1" source="sdMigr9z8ULhyfIldjyS-8" target="sdMigr9z8ULhyfIldjyS-2" edge="1">
          <mxGeometry relative="1" as="geometry">
            <mxPoint x="430" y="180" as="targetPoint" />
          </mxGeometry>
        </mxCell>
        <mxCell id="sdMigr9z8ULhyfIldjyS-16" style="edgeStyle=orthogonalEdgeStyle;rounded=0;orthogonalLoop=1;jettySize=auto;html=1;entryX=0.5;entryY=1;entryDx=0;entryDy=0;dashed=1;endArrow=block;endFill=0;" parent="WIyWlLk6GJQsqaUBKTNV-1" source="sdMigr9z8ULhyfIldjyS-8" target="sdMigr9z8ULhyfIldjyS-14" edge="1">
          <mxGeometry relative="1" as="geometry" />
        </mxCell>
        <mxCell id="sdMigr9z8ULhyfIldjyS-17" style="edgeStyle=orthogonalEdgeStyle;rounded=0;orthogonalLoop=1;jettySize=auto;html=1;entryX=0.5;entryY=1;entryDx=0;entryDy=0;exitX=0.5;exitY=0;exitDx=0;exitDy=0;dashed=1;endArrow=block;endFill=0;" parent="WIyWlLk6GJQsqaUBKTNV-1" source="sdMigr9z8ULhyfIldjyS-8" target="sdMigr9z8ULhyfIldjyS-15" edge="1">
          <mxGeometry relative="1" as="geometry">
            <mxPoint x="640" y="110" as="targetPoint" />
          </mxGeometry>
        </mxCell>
        <mxCell id="sdMigr9z8ULhyfIldjyS-8" value="GuestPublisher" style="swimlane;fontStyle=0;childLayout=stackLayout;horizontal=1;startSize=26;fillColor=#d5e8d4;horizontalStack=0;resizeParent=1;resizeParentMax=0;resizeLast=0;collapsible=1;marginBottom=0;whiteSpace=wrap;html=1;strokeColor=#82b366;" parent="WIyWlLk6GJQsqaUBKTNV-1" vertex="1">
          <mxGeometry x="520" y="130" width="320" height="78" as="geometry" />
        </mxCell>
        <mxCell id="sdMigr9z8ULhyfIldjyS-9" value="+ run(): void" style="text;strokeColor=none;fillColor=none;align=left;verticalAlign=top;spacingLeft=4;spacingRight=4;overflow=hidden;rotatable=0;points=[[0,0.5],[1,0.5]];portConstraint=eastwest;whiteSpace=wrap;html=1;" parent="sdMigr9z8ULhyfIldjyS-8" vertex="1">
          <mxGeometry y="26" width="320" height="26" as="geometry" />
        </mxCell>
        <mxCell id="sdMigr9z8ULhyfIldjyS-10" value="&lt;div&gt;+ propertyChange(event: PropertyChangeEvent): void&lt;/div&gt;" style="text;strokeColor=none;fillColor=none;align=left;verticalAlign=top;spacingLeft=4;spacingRight=4;overflow=hidden;rotatable=0;points=[[0,0.5],[1,0.5]];portConstraint=eastwest;whiteSpace=wrap;html=1;" parent="sdMigr9z8ULhyfIldjyS-8" vertex="1">
          <mxGeometry y="52" width="320" height="26" as="geometry" />
        </mxCell>
        <mxCell id="sdMigr9z8ULhyfIldjyS-14" value="«interface»&lt;br&gt;&lt;b&gt;Runnable&lt;/b&gt;" style="html=1;whiteSpace=wrap;" parent="WIyWlLk6GJQsqaUBKTNV-1" vertex="1">
          <mxGeometry x="535" y="40" width="110" height="50" as="geometry" />
        </mxCell>
        <mxCell id="sdMigr9z8ULhyfIldjyS-15" value="«interface»&lt;br&gt;&lt;b&gt;PropertyChangeListener&lt;/b&gt;" style="html=1;whiteSpace=wrap;" parent="WIyWlLk6GJQsqaUBKTNV-1" vertex="1">
          <mxGeometry x="680" y="40" width="160" height="50" as="geometry" />
        </mxCell>
        <mxCell id="sdMigr9z8ULhyfIldjyS-23" style="edgeStyle=orthogonalEdgeStyle;rounded=0;orthogonalLoop=1;jettySize=auto;html=1;endArrow=none;startFill=1;startArrow=diamondThin;startSize=24;entryX=0.004;entryY=0.676;entryDx=0;entryDy=0;entryPerimeter=0;" parent="WIyWlLk6GJQsqaUBKTNV-1" source="sdMigr9z8ULhyfIldjyS-18" target="sdMigr9z8ULhyfIldjyS-2" edge="1">
          <mxGeometry relative="1" as="geometry">
            <mxPoint x="270" y="200" as="targetPoint" />
          </mxGeometry>
        </mxCell>
        <mxCell id="sdMigr9z8ULhyfIldjyS-24" style="edgeStyle=orthogonalEdgeStyle;rounded=0;orthogonalLoop=1;jettySize=auto;html=1;entryX=0;entryY=0.5;entryDx=0;entryDy=0;exitX=0.5;exitY=0;exitDx=0;exitDy=0;dashed=1;endArrow=block;endFill=0;" parent="WIyWlLk6GJQsqaUBKTNV-1" source="sdMigr9z8ULhyfIldjyS-18" target="sdMigr9z8ULhyfIldjyS-14" edge="1">
          <mxGeometry relative="1" as="geometry" />
        </mxCell>
        <mxCell id="sdMigr9z8ULhyfIldjyS-39" style="edgeStyle=orthogonalEdgeStyle;rounded=0;orthogonalLoop=1;jettySize=auto;html=1;exitX=0;exitY=0.5;exitDx=0;exitDy=0;entryX=0.001;entryY=0.767;entryDx=0;entryDy=0;entryPerimeter=0;" parent="WIyWlLk6GJQsqaUBKTNV-1" source="sdMigr9z8ULhyfIldjyS-19" target="sdMigr9z8ULhyfIldjyS-35" edge="1">
          <mxGeometry relative="1" as="geometry">
            <mxPoint x="210" y="-90" as="targetPoint" />
          </mxGeometry>
        </mxCell>
        <mxCell id="sdMigr9z8ULhyfIldjyS-18" value="HostPublisher" style="swimlane;fontStyle=0;childLayout=stackLayout;horizontal=1;startSize=26;fillColor=#d5e8d4;horizontalStack=0;resizeParent=1;resizeParentMax=0;resizeLast=0;collapsible=1;marginBottom=0;whiteSpace=wrap;html=1;strokeColor=#82b366;" parent="WIyWlLk6GJQsqaUBKTNV-1" vertex="1">
          <mxGeometry x="-170" y="130" width="330" height="78" as="geometry" />
        </mxCell>
        <mxCell id="sdMigr9z8ULhyfIldjyS-19" value="+ run(): void" style="text;strokeColor=none;fillColor=none;align=left;verticalAlign=top;spacingLeft=4;spacingRight=4;overflow=hidden;rotatable=0;points=[[0,0.5],[1,0.5]];portConstraint=eastwest;whiteSpace=wrap;html=1;" parent="sdMigr9z8ULhyfIldjyS-18" vertex="1">
          <mxGeometry y="26" width="330" height="26" as="geometry" />
        </mxCell>
        <mxCell id="sdMigr9z8ULhyfIldjyS-20" value="&lt;div&gt;+ propertyChange(event: PropertyChangeEvent): void&lt;/div&gt;" style="text;strokeColor=none;fillColor=none;align=left;verticalAlign=top;spacingLeft=4;spacingRight=4;overflow=hidden;rotatable=0;points=[[0,0.5],[1,0.5]];portConstraint=eastwest;whiteSpace=wrap;html=1;" parent="sdMigr9z8ULhyfIldjyS-18" vertex="1">
          <mxGeometry y="52" width="330" height="26" as="geometry" />
        </mxCell>
        <mxCell id="sdMigr9z8ULhyfIldjyS-25" style="edgeStyle=orthogonalEdgeStyle;rounded=0;orthogonalLoop=1;jettySize=auto;html=1;entryX=-0.004;entryY=0.426;entryDx=0;entryDy=0;entryPerimeter=0;dashed=1;endArrow=block;endFill=0;" parent="WIyWlLk6GJQsqaUBKTNV-1" target="sdMigr9z8ULhyfIldjyS-15" edge="1">
          <mxGeometry relative="1" as="geometry">
            <mxPoint x="130" y="130" as="sourcePoint" />
            <Array as="points">
              <mxPoint x="130" y="20" />
              <mxPoint x="660" y="20" />
              <mxPoint x="660" y="61" />
            </Array>
          </mxGeometry>
        </mxCell>
        <mxCell id="sdMigr9z8ULhyfIldjyS-32" style="edgeStyle=orthogonalEdgeStyle;rounded=0;orthogonalLoop=1;jettySize=auto;html=1;entryX=0.467;entryY=1.047;entryDx=0;entryDy=0;entryPerimeter=0;dashed=1;endArrow=block;endFill=0;" parent="WIyWlLk6GJQsqaUBKTNV-1" source="sdMigr9z8ULhyfIldjyS-26" target="sdMigr9z8ULhyfIldjyS-30" edge="1">
          <mxGeometry relative="1" as="geometry">
            <mxPoint x="340" y="510" as="targetPoint" />
          </mxGeometry>
        </mxCell>
        <mxCell id="sdMigr9z8ULhyfIldjyS-33" style="edgeStyle=orthogonalEdgeStyle;rounded=0;orthogonalLoop=1;jettySize=auto;html=1;entryX=1;entryY=0.5;entryDx=0;entryDy=0;exitX=1.003;exitY=0.241;exitDx=0;exitDy=0;exitPerimeter=0;startArrow=diamondThin;startFill=1;endArrow=none;startSize=24;" parent="WIyWlLk6GJQsqaUBKTNV-1" source="sdMigr9z8ULhyfIldjyS-28" target="sdMigr9z8ULhyfIldjyS-2" edge="1">
          <mxGeometry relative="1" as="geometry" />
        </mxCell>
        <mxCell id="sdMigr9z8ULhyfIldjyS-26" value="Subscriber" style="swimlane;fontStyle=0;childLayout=stackLayout;horizontal=1;startSize=26;fillColor=#d5e8d4;horizontalStack=0;resizeParent=1;resizeParentMax=0;resizeLast=0;collapsible=1;marginBottom=0;whiteSpace=wrap;html=1;strokeColor=#82b366;" parent="WIyWlLk6GJQsqaUBKTNV-1" vertex="1">
          <mxGeometry x="60" y="550" width="380" height="104" as="geometry" />
        </mxCell>
        <mxCell id="sdMigr9z8ULhyfIldjyS-27" value="+ connectionLost(): void" style="text;strokeColor=none;fillColor=none;align=left;verticalAlign=top;spacingLeft=4;spacingRight=4;overflow=hidden;rotatable=0;points=[[0,0.5],[1,0.5]];portConstraint=eastwest;whiteSpace=wrap;html=1;" parent="sdMigr9z8ULhyfIldjyS-26" vertex="1">
          <mxGeometry y="26" width="380" height="26" as="geometry" />
        </mxCell>
        <mxCell id="sdMigr9z8ULhyfIldjyS-28" value="+ messageArrived(topic: String, mqttMessage: MqttMessage): void" style="text;strokeColor=none;fillColor=none;align=left;verticalAlign=top;spacingLeft=4;spacingRight=4;overflow=hidden;rotatable=0;points=[[0,0.5],[1,0.5]];portConstraint=eastwest;whiteSpace=wrap;html=1;" parent="sdMigr9z8ULhyfIldjyS-26" vertex="1">
          <mxGeometry y="52" width="380" height="26" as="geometry" />
        </mxCell>
        <mxCell id="sdMigr9z8ULhyfIldjyS-29" value="+ deliveryComplete(iMqttDeliveryToken: IMqttDeleveryToken): void" style="text;strokeColor=none;fillColor=none;align=left;verticalAlign=top;spacingLeft=4;spacingRight=4;overflow=hidden;rotatable=0;points=[[0,0.5],[1,0.5]];portConstraint=eastwest;whiteSpace=wrap;html=1;" parent="sdMigr9z8ULhyfIldjyS-26" vertex="1">
          <mxGeometry y="78" width="380" height="26" as="geometry" />
        </mxCell>
        <mxCell id="sdMigr9z8ULhyfIldjyS-30" value="«interface»&lt;br&gt;&lt;b&gt;MqttCallback&lt;/b&gt;" style="html=1;whiteSpace=wrap;" parent="WIyWlLk6GJQsqaUBKTNV-1" vertex="1">
          <mxGeometry x="289" y="450" width="110" height="50" as="geometry" />
        </mxCell>
        <mxCell id="sdMigr9z8ULhyfIldjyS-34" value="Blackboard" style="swimlane;fontStyle=1;align=center;verticalAlign=top;childLayout=stackLayout;horizontal=1;startSize=26;horizontalStack=0;resizeParent=1;resizeParentMax=0;resizeLast=0;collapsible=1;marginBottom=0;whiteSpace=wrap;html=1;fillColor=#f8cecc;strokeColor=#b85450;" parent="WIyWlLk6GJQsqaUBKTNV-1" vertex="1">
          <mxGeometry x="264" y="-110" width="160" height="86" as="geometry" />
        </mxCell>
        <mxCell id="sdMigr9z8ULhyfIldjyS-35" value="+ field: type" style="text;strokeColor=none;fillColor=none;align=left;verticalAlign=top;spacingLeft=4;spacingRight=4;overflow=hidden;rotatable=0;points=[[0,0.5],[1,0.5]];portConstraint=eastwest;whiteSpace=wrap;html=1;" parent="sdMigr9z8ULhyfIldjyS-34" vertex="1">
          <mxGeometry y="26" width="160" height="26" as="geometry" />
        </mxCell>
        <mxCell id="sdMigr9z8ULhyfIldjyS-36" value="" style="line;strokeWidth=1;fillColor=none;align=left;verticalAlign=middle;spacingTop=-1;spacingLeft=3;spacingRight=3;rotatable=0;labelPosition=right;points=[];portConstraint=eastwest;strokeColor=inherit;" parent="sdMigr9z8ULhyfIldjyS-34" vertex="1">
          <mxGeometry y="52" width="160" height="8" as="geometry" />
        </mxCell>
        <mxCell id="sdMigr9z8ULhyfIldjyS-37" value="+ method(type): type" style="text;strokeColor=none;fillColor=none;align=left;verticalAlign=top;spacingLeft=4;spacingRight=4;overflow=hidden;rotatable=0;points=[[0,0.5],[1,0.5]];portConstraint=eastwest;whiteSpace=wrap;html=1;" parent="sdMigr9z8ULhyfIldjyS-34" vertex="1">
          <mxGeometry y="60" width="160" height="26" as="geometry" />
        </mxCell>
        <mxCell id="sdMigr9z8ULhyfIldjyS-40" style="edgeStyle=orthogonalEdgeStyle;rounded=0;orthogonalLoop=1;jettySize=auto;html=1;entryX=1;entryY=0.5;entryDx=0;entryDy=0;exitX=1;exitY=0.5;exitDx=0;exitDy=0;" parent="WIyWlLk6GJQsqaUBKTNV-1" source="sdMigr9z8ULhyfIldjyS-9" target="sdMigr9z8ULhyfIldjyS-34" edge="1">
          <mxGeometry relative="1" as="geometry" />
        </mxCell>
        <mxCell id="sdMigr9z8ULhyfIldjyS-42" style="edgeStyle=orthogonalEdgeStyle;rounded=0;orthogonalLoop=1;jettySize=auto;html=1;entryX=0;entryY=0.769;entryDx=0;entryDy=0;entryPerimeter=0;exitX=0;exitY=0.5;exitDx=0;exitDy=0;" parent="WIyWlLk6GJQsqaUBKTNV-1" source="sdMigr9z8ULhyfIldjyS-28" target="sdMigr9z8ULhyfIldjyS-35" edge="1">
          <mxGeometry relative="1" as="geometry">
            <Array as="points">
              <mxPoint x="-190" y="615" />
              <mxPoint x="-190" y="-64" />
            </Array>
          </mxGeometry>
        </mxCell>
        <mxCell id="sdMigr9z8ULhyfIldjyS-48" style="edgeStyle=orthogonalEdgeStyle;rounded=0;orthogonalLoop=1;jettySize=auto;html=1;endArrow=block;endFill=0;" parent="WIyWlLk6GJQsqaUBKTNV-1" source="sdMigr9z8ULhyfIldjyS-43" target="sdMigr9z8ULhyfIldjyS-47" edge="1">
          <mxGeometry relative="1" as="geometry" />
        </mxCell>
        <mxCell id="sdMigr9z8ULhyfIldjyS-43" value="NewStoryWindow" style="swimlane;fontStyle=0;childLayout=stackLayout;horizontal=1;startSize=26;fillColor=#d5e8d4;horizontalStack=0;resizeParent=1;resizeParentMax=0;resizeLast=0;collapsible=1;marginBottom=0;whiteSpace=wrap;html=1;strokeColor=#82b366;" parent="WIyWlLk6GJQsqaUBKTNV-1" vertex="1">
          <mxGeometry x="880" y="330" width="140" height="78" as="geometry" />
        </mxCell>
        <mxCell id="sdMigr9z8ULhyfIldjyS-44" value="+ showWindow(): void" style="text;strokeColor=none;fillColor=none;align=left;verticalAlign=top;spacingLeft=4;spacingRight=4;overflow=hidden;rotatable=0;points=[[0,0.5],[1,0.5]];portConstraint=eastwest;whiteSpace=wrap;html=1;" parent="sdMigr9z8ULhyfIldjyS-43" vertex="1">
          <mxGeometry y="26" width="140" height="26" as="geometry" />
        </mxCell>
        <mxCell id="sdMigr9z8ULhyfIldjyS-45" value="+ hideWindow(): void" style="text;strokeColor=none;fillColor=none;align=left;verticalAlign=top;spacingLeft=4;spacingRight=4;overflow=hidden;rotatable=0;points=[[0,0.5],[1,0.5]];portConstraint=eastwest;whiteSpace=wrap;html=1;" parent="sdMigr9z8ULhyfIldjyS-43" vertex="1">
          <mxGeometry y="52" width="140" height="26" as="geometry" />
        </mxCell>
        <mxCell id="sdMigr9z8ULhyfIldjyS-47" value="&lt;b&gt;JFrame&lt;/b&gt;" style="html=1;whiteSpace=wrap;" parent="WIyWlLk6GJQsqaUBKTNV-1" vertex="1">
          <mxGeometry x="895" y="250" width="110" height="50" as="geometry" />
        </mxCell>
        <mxCell id="sdMigr9z8ULhyfIldjyS-62" style="edgeStyle=orthogonalEdgeStyle;rounded=0;orthogonalLoop=1;jettySize=auto;html=1;dashed=1;exitX=0.461;exitY=0.964;exitDx=0;exitDy=0;exitPerimeter=0;entryX=0.153;entryY=1.064;entryDx=0;entryDy=0;entryPerimeter=0;" parent="WIyWlLk6GJQsqaUBKTNV-1" source="sdMigr9z8ULhyfIldjyS-50" target="sdMigr9z8ULhyfIldjyS-56" edge="1">
          <mxGeometry relative="1" as="geometry">
            <mxPoint x="990" y="675" as="targetPoint" />
            <Array as="points">
              <mxPoint x="825" y="675" />
              <mxPoint x="1048" y="675" />
            </Array>
          </mxGeometry>
        </mxCell>
        <mxCell id="sdMigr9z8ULhyfIldjyS-49" value="&lt;div&gt;NewStoryPanel&lt;/div&gt;" style="swimlane;fontStyle=0;align=center;verticalAlign=top;childLayout=stackLayout;horizontal=1;startSize=26;horizontalStack=0;resizeParent=1;resizeParentMax=0;resizeLast=0;collapsible=1;marginBottom=0;whiteSpace=wrap;html=1;fillColor=#d5e8d4;strokeColor=#82b366;" parent="WIyWlLk6GJQsqaUBKTNV-1" vertex="1">
          <mxGeometry x="700" y="610" width="270" height="52" as="geometry" />
        </mxCell>
        <mxCell id="sdMigr9z8ULhyfIldjyS-50" value="+ NewStoryPanel(nanny: NewStoryNanny)" style="text;strokeColor=none;fillColor=none;align=left;verticalAlign=top;spacingLeft=4;spacingRight=4;overflow=hidden;rotatable=0;points=[[0,0.5],[1,0.5]];portConstraint=eastwest;whiteSpace=wrap;html=1;" parent="sdMigr9z8ULhyfIldjyS-49" vertex="1">
          <mxGeometry y="26" width="270" height="26" as="geometry" />
        </mxCell>
        <mxCell id="sdMigr9z8ULhyfIldjyS-64" style="edgeStyle=orthogonalEdgeStyle;rounded=0;orthogonalLoop=1;jettySize=auto;html=1;startArrow=diamondThin;startFill=1;startSize=24;endArrow=none;" parent="WIyWlLk6GJQsqaUBKTNV-1" source="sdMigr9z8ULhyfIldjyS-53" edge="1">
          <mxGeometry relative="1" as="geometry">
            <mxPoint x="990" y="410" as="targetPoint" />
          </mxGeometry>
        </mxCell>
        <mxCell id="sdMigr9z8ULhyfIldjyS-71" style="edgeStyle=orthogonalEdgeStyle;rounded=0;orthogonalLoop=1;jettySize=auto;html=1;" parent="WIyWlLk6GJQsqaUBKTNV-1" source="sdMigr9z8ULhyfIldjyS-53" target="sdMigr9z8ULhyfIldjyS-67" edge="1">
          <mxGeometry relative="1" as="geometry" />
        </mxCell>
        <mxCell id="sdMigr9z8ULhyfIldjyS-53" value="&lt;div&gt;NewStoryNanny&lt;/div&gt;" style="swimlane;fontStyle=0;align=center;verticalAlign=top;childLayout=stackLayout;horizontal=1;startSize=26;horizontalStack=0;resizeParent=1;resizeParentMax=0;resizeLast=0;collapsible=1;marginBottom=0;whiteSpace=wrap;html=1;fillColor=#d5e8d4;strokeColor=#82b366;" parent="WIyWlLk6GJQsqaUBKTNV-1" vertex="1">
          <mxGeometry x="990" y="610" width="380" height="52" as="geometry" />
        </mxCell>
        <mxCell id="sdMigr9z8ULhyfIldjyS-56" value="+ importStories(username: String, password: String, id: String): void" style="text;strokeColor=none;fillColor=none;align=left;verticalAlign=top;spacingLeft=4;spacingRight=4;overflow=hidden;rotatable=0;points=[[0,0.5],[1,0.5]];portConstraint=eastwest;whiteSpace=wrap;html=1;" parent="sdMigr9z8ULhyfIldjyS-53" vertex="1">
          <mxGeometry y="26" width="380" height="26" as="geometry" />
        </mxCell>
        <mxCell id="sdMigr9z8ULhyfIldjyS-57" value="&lt;div&gt;&lt;b&gt;JPanel&lt;/b&gt;&lt;/div&gt;" style="html=1;whiteSpace=wrap;" parent="WIyWlLk6GJQsqaUBKTNV-1" vertex="1">
          <mxGeometry x="780" y="500" width="110" height="50" as="geometry" />
        </mxCell>
        <mxCell id="sdMigr9z8ULhyfIldjyS-58" style="edgeStyle=orthogonalEdgeStyle;rounded=0;orthogonalLoop=1;jettySize=auto;html=1;endArrow=block;endFill=0;exitX=0.5;exitY=0;exitDx=0;exitDy=0;" parent="WIyWlLk6GJQsqaUBKTNV-1" source="sdMigr9z8ULhyfIldjyS-49" target="sdMigr9z8ULhyfIldjyS-57" edge="1">
          <mxGeometry relative="1" as="geometry">
            <mxPoint x="950" y="470" as="sourcePoint" />
            <mxPoint x="950" y="440" as="targetPoint" />
          </mxGeometry>
        </mxCell>
        <mxCell id="sdMigr9z8ULhyfIldjyS-59" style="edgeStyle=orthogonalEdgeStyle;rounded=0;orthogonalLoop=1;jettySize=auto;html=1;entryX=0;entryY=0.5;entryDx=0;entryDy=0;" parent="WIyWlLk6GJQsqaUBKTNV-1" source="sdMigr9z8ULhyfIldjyS-44" target="sdMigr9z8ULhyfIldjyS-50" edge="1">
          <mxGeometry relative="1" as="geometry" />
        </mxCell>
        <mxCell id="sdMigr9z8ULhyfIldjyS-61" style="edgeStyle=orthogonalEdgeStyle;rounded=0;orthogonalLoop=1;jettySize=auto;html=1;entryX=1.006;entryY=0.238;entryDx=0;entryDy=0;entryPerimeter=0;exitX=1;exitY=0.5;exitDx=0;exitDy=0;" parent="WIyWlLk6GJQsqaUBKTNV-1" source="sdMigr9z8ULhyfIldjyS-43" target="sdMigr9z8ULhyfIldjyS-56" edge="1">
          <mxGeometry relative="1" as="geometry">
            <mxPoint x="1150.6399999999999" y="642.058" as="targetPoint" />
            <Array as="points">
              <mxPoint x="1430" y="369" />
              <mxPoint x="1430" y="642" />
            </Array>
          </mxGeometry>
        </mxCell>
        <mxCell id="sdMigr9z8ULhyfIldjyS-65" style="edgeStyle=orthogonalEdgeStyle;rounded=0;orthogonalLoop=1;jettySize=auto;html=1;entryX=0.975;entryY=0.25;entryDx=0;entryDy=0;entryPerimeter=0;exitX=1.003;exitY=0.931;exitDx=0;exitDy=0;exitPerimeter=0;" parent="WIyWlLk6GJQsqaUBKTNV-1" source="sdMigr9z8ULhyfIldjyS-56" target="sdMigr9z8ULhyfIldjyS-37" edge="1">
          <mxGeometry relative="1" as="geometry">
            <mxPoint x="1150" y="649" as="sourcePoint" />
            <Array as="points">
              <mxPoint x="1460" y="660" />
              <mxPoint x="1460" y="-43" />
            </Array>
          </mxGeometry>
        </mxCell>
        <mxCell id="sdMigr9z8ULhyfIldjyS-67" value="TaigaStoryFetcher" style="swimlane;fontStyle=0;childLayout=stackLayout;horizontal=1;startSize=26;fillColor=#d5e8d4;horizontalStack=0;resizeParent=1;resizeParentMax=0;resizeLast=0;collapsible=1;marginBottom=0;whiteSpace=wrap;html=1;strokeColor=#82b366;" parent="WIyWlLk6GJQsqaUBKTNV-1" vertex="1">
          <mxGeometry x="880" y="760" width="380" height="130" as="geometry" />
        </mxCell>
        <mxCell id="sdMigr9z8ULhyfIldjyS-68" value="+ loginAndGetToken: void" style="text;strokeColor=none;fillColor=none;align=left;verticalAlign=top;spacingLeft=4;spacingRight=4;overflow=hidden;rotatable=0;points=[[0,0.5],[1,0.5]];portConstraint=eastwest;whiteSpace=wrap;html=1;" parent="sdMigr9z8ULhyfIldjyS-67" vertex="1">
          <mxGeometry y="26" width="380" height="26" as="geometry" />
        </mxCell>
        <mxCell id="sdMigr9z8ULhyfIldjyS-69" value="+ getProjectId(token: String, projectSlug: String): int" style="text;strokeColor=none;fillColor=none;align=left;verticalAlign=top;spacingLeft=4;spacingRight=4;overflow=hidden;rotatable=0;points=[[0,0.5],[1,0.5]];portConstraint=eastwest;whiteSpace=wrap;html=1;" parent="sdMigr9z8ULhyfIldjyS-67" vertex="1">
          <mxGeometry y="52" width="380" height="26" as="geometry" />
        </mxCell>
        <mxCell id="sdMigr9z8ULhyfIldjyS-70" value="+ fetchUserStories(token: String, projectId: int): JSONArray" style="text;strokeColor=none;fillColor=none;align=left;verticalAlign=top;spacingLeft=4;spacingRight=4;overflow=hidden;rotatable=0;points=[[0,0.5],[1,0.5]];portConstraint=eastwest;whiteSpace=wrap;html=1;" parent="sdMigr9z8ULhyfIldjyS-67" vertex="1">
          <mxGeometry y="78" width="380" height="26" as="geometry" />
        </mxCell>
        <mxCell id="sdMigr9z8ULhyfIldjyS-72" value="+ parseIntoList(stories: JSONArray): LinkedList&amp;lt;String&amp;gt;" style="text;strokeColor=none;fillColor=none;align=left;verticalAlign=top;spacingLeft=4;spacingRight=4;overflow=hidden;rotatable=0;points=[[0,0.5],[1,0.5]];portConstraint=eastwest;whiteSpace=wrap;html=1;" parent="sdMigr9z8ULhyfIldjyS-67" vertex="1">
          <mxGeometry y="104" width="380" height="26" as="geometry" />
        </mxCell>
        <mxCell id="KRM4Gb67azi5ZCk7ItP3-1" style="edgeStyle=orthogonalEdgeStyle;rounded=0;orthogonalLoop=1;jettySize=auto;html=1;endArrow=none;startFill=0;startArrow=diamondThin;strokeWidth=1;endSize=25;startSize=25;entryX=0.655;entryY=0.004;entryDx=0;entryDy=0;exitX=0.996;exitY=0.159;exitDx=0;exitDy=0;exitPerimeter=0;entryPerimeter=0;" parent="WIyWlLk6GJQsqaUBKTNV-1" target="sdMigr9z8ULhyfIldjyS-0" edge="1">
          <mxGeometry relative="1" as="geometry">
            <mxPoint x="389.6600000000003" y="131.24000000000007" as="targetPoint" />
            <mxPoint x="468.96000000000004" y="151.00000000000006" as="sourcePoint" />
            <Array as="points">
              <mxPoint x="500" y="151" />
              <mxPoint x="500" y="110" />
              <mxPoint x="380" y="110" />
              <mxPoint x="380" y="131" />
            </Array>
          </mxGeometry>
        </mxCell>
        <mxCell id="h9s0HPSXkhPdISEPkAd0-4" style="edgeStyle=orthogonalEdgeStyle;rounded=0;orthogonalLoop=1;jettySize=auto;html=1;" edge="1" parent="WIyWlLk6GJQsqaUBKTNV-1" source="h9s0HPSXkhPdISEPkAd0-0" target="sdMigr9z8ULhyfIldjyS-34">
          <mxGeometry relative="1" as="geometry" />
        </mxCell>
        <mxCell id="h9s0HPSXkhPdISEPkAd0-5" style="edgeStyle=orthogonalEdgeStyle;rounded=0;orthogonalLoop=1;jettySize=auto;html=1;entryX=0.5;entryY=0;entryDx=0;entryDy=0;" edge="1" parent="WIyWlLk6GJQsqaUBKTNV-1" source="h9s0HPSXkhPdISEPkAd0-0" target="sdMigr9z8ULhyfIldjyS-47">
          <mxGeometry relative="1" as="geometry" />
        </mxCell>
        <mxCell id="h9s0HPSXkhPdISEPkAd0-0" value="T4AJoinRoom" style="swimlane;fontStyle=1;align=center;verticalAlign=top;childLayout=stackLayout;horizontal=1;startSize=26;horizontalStack=0;resizeParent=1;resizeParentMax=0;resizeLast=0;collapsible=1;marginBottom=0;whiteSpace=wrap;html=1;fillColor=#f8cecc;strokeColor=#b85450;" vertex="1" parent="WIyWlLk6GJQsqaUBKTNV-1">
          <mxGeometry x="855" y="-170" width="190" height="52" as="geometry" />
        </mxCell>
        <mxCell id="h9s0HPSXkhPdISEPkAd0-1" value="+getPrefferedSize(): Dimension" style="text;strokeColor=none;fillColor=none;align=left;verticalAlign=top;spacingLeft=4;spacingRight=4;overflow=hidden;rotatable=0;points=[[0,0.5],[1,0.5]];portConstraint=eastwest;whiteSpace=wrap;html=1;" vertex="1" parent="h9s0HPSXkhPdISEPkAd0-0">
          <mxGeometry y="26" width="190" height="26" as="geometry" />
        </mxCell>
      </root>
    </mxGraphModel>
  </diagram>
</mxfile>
